<svg id="svg" version="1.1" viewBox="0 0 300 300" width="300" height="300" xmlns="http://www.w3.org/2000/svg"><svg xmlns="http://www.w3.org/2000/svg"><defs><clipPath id="clip-1"><rect x="0" y="0" transform="scale(0.15,0.15)" width="2000" height="2000" fill="none"/></clipPath><linearGradient x1="93.4704" y1="186.1365" x2="142.14555" y2="139.0737" gradientUnits="userSpaceOnUse" id="color-1"><stop offset="0" stop-color="#673625"/><stop offset="1" stop-color="#c0764f"/></linearGradient><linearGradient x1="157.2525" y1="100.8552" x2="122.09475" y2="127.3266" gradientUnits="userSpaceOnUse" id="color-2"><stop offset="0" stop-color="#aa694a"/><stop offset="1" stop-color="#d98c60"/></linearGradient><linearGradient x1="74.41935" y1="203.3415" x2="127.5465" y2="148.4409" gradientUnits="userSpaceOnUse" id="color-3"><stop offset="0" stop-color="#633424"/><stop offset="1" stop-color="#9d5c3e"/></linearGradient><linearGradient x1="234.3105" y1="146.0748" x2="176.139" y2="194.4045" gradientUnits="userSpaceOnUse" id="color-4"><stop offset="0" stop-color="#80452f"/><stop offset="1" stop-color="#e29263"/></linearGradient><linearGradient x1="178.377" y1="55.58535" x2="138.1806" y2="98.84775" gradientUnits="userSpaceOnUse" id="color-5"><stop offset="0" stop-color="#633224"/><stop offset="1" stop-color="#a86342"/></linearGradient><linearGradient x1="150.0315" y1="232.416" x2="188.2935" y2="191.6145" gradientUnits="userSpaceOnUse" id="color-6"><stop offset="0" stop-color="#713c2a"/><stop offset="1" stop-color="#c97c51"/></linearGradient><linearGradient x1="246.0795" y1="133.7775" x2="208.9125" y2="162.843" gradientUnits="userSpaceOnUse" id="color-7"><stop offset="0" stop-color="#663929"/><stop offset="1" stop-color="#a46044"/></linearGradient><linearGradient x1="103.752" y1="93.54975" x2="94.1058" y2="75.2943" gradientUnits="userSpaceOnUse" id="color-8"><stop offset="0" stop-color="#af6747"/><stop offset="1" stop-color="#c97d54"/></linearGradient></defs><g clip-path="url(#clip-1)" fill="none" fill-rule="nonzero" stroke="none" stroke-width="1" stroke-linecap="butt" stroke-linejoin="miter" stroke-miterlimit="10" stroke-dasharray="" stroke-dashoffset="0" font-family="none" font-weight="none" font-size="none" text-anchor="none" style="mix-blend-mode: normal"><path d="M107.2794,97.74465c2.2554,-1.78875 3.5247,-3.08175 6.13245,-4.4313c4.4664,-2.3115 9.6513,-5.19825 14.52375,-6.552c4.97895,-1.3836 12.46005,-2.62305 17.6388,-2.5584c-0.1251,2.09595 0.02235,6.0549 -0.00555,8.373c-0.0852,9.50625 -0.0483,19.01295 0.1107,28.51815c0.0396,3.9189 0.22275,9.77055 -0.0696,13.66605c0.08055,18.38835 0.05685,36.77685 -0.0711,55.16385l-0.015,14.5185c0.00225,2.121 0.1152,5.8305 -0.0951,7.8075c-0.56505,0.39 -2.7855,0.24 -3.51885,0.1935c-8.64525,-0.5475 -18.17265,-2.8335 -25.85535,-6.9345c-4.1796,-2.2305 -8.7663,-5.5305 -12.47685,-8.496c-0.9732,-0.8145 -2.6991,-2.8425 -3.7311,-3.8505c-1.00095,-0.978 -2.5386,-2.217 -3.3606,-3.2325c-0.7347,-0.942 -1.35285,-2.1045 -2.0655,-3.048c-1.87065,-2.4765 -3.40995,-4.737 -4.85865,-7.4715c-1.44975,-2.7375 -3.21705,-4.3845 -3.67245,-7.6425c-0.1674,-1.197 -1.8651,-3.906 -2.0163,-5.283c-0.3609,-1.9455 -0.5601,-3.8685 -0.8928,-5.8185c-0.36315,-2.0805 -1.0287,-5.043 -1.14495,-7.095c-0.58035,-10.18695 1.0914,-20.3439 4.8834,-29.81925c1.2954,-3.2367 3.5154,-6.71385 4.9851,-9.95925c0.44355,-0.97935 1.54605,-1.48845 2.1531,-2.301c0.82005,-1.09755 1.43295,-2.4741 2.28525,-3.56025c2.0805,-2.196 4.8153,-4.5603 6.6024,-6.9507c0.0243,-0.04755 0.0486,-0.0951 0.07275,-0.14265c1.91505,-0.8091 2.8233,-2.4432 4.46205,-3.09375zM132.97155,198.1905c-0.0981,-1.779 -0.1785,-3.5595 -0.2412,-5.34c0.1746,-1.6395 0.07455,-5.0925 0.0675,-6.873l-0.0396,-12.9l0.0381,-42.51975c-0.0363,-1.45725 -0.04725,-2.93475 -0.0363,-4.39305c0.0672,-8.9634 -0.15735,-18.03315 0.2433,-26.985c-0.94785,0.27885 -1.9008,0.5394 -2.8587,0.78165c-3.41775,1.31775 -6.68745,2.4195 -9.8934,4.2522c-1.1679,0.6678 -2.91105,2.45805 -3.53685,2.77455c-4.68855,2.96805 -9.1314,6.8037 -12.35865,11.34825c-2.09625,3.36105 -4.383,6.6696 -5.97075,10.30725c-0.6348,1.19625 -0.8913,3.80985 -1.44255,4.8693c-2.6313,5.05695 -2.0646,9.4791 -2.31705,14.6403c-0.49185,10.0548 1.72155,18.1608 7.1154,26.7543c3.2034,5.1045 7.2207,10.275 12.207,13.9485c2.96955,2.0865 7.3977,4.7415 10.66215,6.4245c2.42505,1.2495 5.77335,1.914 8.3616,2.91z" fill="url(#color-1)"/><path d="M107.2794,97.74465c2.2554,-1.78875 3.5247,-3.08175 6.13245,-4.4313c4.4664,-2.3115 9.6513,-5.19825 14.52375,-6.552c4.97895,-1.3836 12.46005,-2.62305 17.6388,-2.5584c-0.1251,2.09595 0.02235,6.0549 -0.00555,8.373c-0.0852,9.50625 -0.0483,19.01295 0.1107,28.51815c0.0396,3.9189 0.22275,9.77055 -0.0696,13.66605c-0.46245,1.77855 -0.10335,10.34745 -0.25125,12.58245c-0.04905,0.74055 0.09375,2.49075 -0.0792,3.1824c-0.7029,-3.21315 -6.3276,-6.5883 -9.10995,-8.10765c-5.1657,-2.82105 -2.1753,-7.57125 -3.3732,-11.8596c-0.0363,-1.45725 -0.04725,-2.93475 -0.0363,-4.39305c0.0672,-8.9634 -0.15735,-18.03315 0.2433,-26.985c-0.94785,0.27885 -1.9008,0.5394 -2.8587,0.78165c-3.41775,1.31775 -6.68745,2.4195 -9.8934,4.2522c-1.1679,0.6678 -2.91105,2.45805 -3.53685,2.77455c-2.7015,-0.00225 -5.20575,4.10805 -6.672,3.9969c-0.10665,-0.55125 -3.05175,-4.4649 -3.5019,-5.14785c-1.7277,-2.6217 -1.65285,-2.9127 -1.5804,-5.9202c0.39255,-0.5088 1.84995,-1.54785 2.40645,-1.95735z" fill="url(#color-2)"/><path d="M79.48425,88.98225c-0.2256,1.5036 -4.8201,6.34245 -5.6103,7.9899c-0.2217,0.46245 0.43425,1.71795 0.64245,2.1075c1.9395,3.62625 4.19715,4.9143 8.1441,5.69055c0.309,-0.22515 0.1779,-0.0882 0.3909,-0.41325l0.21495,0.1566c-0.8805,1.5561 -2.01915,2.97255 -2.97585,4.48455c-2.81175,4.44375 -4.88115,9.44895 -6.53985,14.4198c-0.891,2.66985 -1.88055,5.33865 -2.5182,8.0832c-0.4707,2.0256 -0.5979,4.01475 -0.8568,6.06435c-1.0482,8.29815 -0.95715,12.98355 -0.0429,21.31005c0.3525,3.21 0.60345,6.2805 1.4001,9.423c0.46305,1.827 1.30515,3.5385 1.86,5.337c0.3699,1.2 0.4497,2.4525 0.9402,3.618c0.67485,1.602 2.24265,3.615 2.56485,5.1525c0.5685,2.709 9.0951,14.4495 11.34675,16.7955c11.8041,12.291 22.6758,19.338 39.29175,23.5695c5.78505,1.473 11.6121,2.4345 17.59605,2.532c0.32955,1.914 0.174,10.395 0.18375,12.894c-3.92055,-0.6 -8.0439,0.183 -12.16545,-0.939c-1.85715,-0.5055 -4.6656,-0.3735 -6.6732,-1.059c-1.6098,-0.5505 -3.39735,-0.9045 -5.01075,-1.5045c-5.7465,-1.851 -11.66805,-3.915 -16.926,-6.9075c-0.8688,-0.4935 -2.76075,-1.2975 -3.44625,-1.776c-3.41445,-2.1045 -6.56685,-4.374 -9.81885,-6.6825c-3.9381,-2.7945 -6.5307,-5.322 -9.91905,-8.769c-4.87545,-4.959 -8.8293,-10.4295 -12.36405,-16.4115c-0.83775,-1.4175 -1.90755,-2.838 -2.70195,-4.2945c-4.4334,-9.8535 -7.73355,-20.139 -9.1857,-30.8775c-0.2991,-2.2125 -0.1335,-4.5045 -0.31725,-6.7245c-0.1428,-1.7265 -0.34695,-3.37755 -0.3177,-5.1018c0.6276,-13.02525 3.69855,-25.9368 9.3714,-37.70235c1.12815,-2.3397 2.59155,-4.563 3.876,-6.80805c1.2252,-1.58025 2.4465,-4.7136 3.70065,-6.1449c1.8975,-2.16555 3.93795,-5.6352 5.8662,-7.51215z" fill="url(#color-3)"/><path d="M196.008,108.3693l-0.069,0.55635c0.7995,0.6966 1.3905,1.2909 2.433,1.5657l0.3045,-0.0816c0.2295,-0.7707 0.057,-1.68705 0.1035,-2.4978c1.3425,-0.01905 5.556,-0.0159 5.3535,2.2215c-0.177,1.97775 -0.267,2.0721 1.1865,3.6846c0.4605,0.5586 0.654,0.63645 1.371,0.73905c0.2475,-0.1083 0.3345,-0.1839 0.6045,-0.1923c-0.441,0.66345 -2.763,3.09135 -3.378,3.7389c-1.9125,2.0127 -3.807,4.04295 -5.682,6.0906c-2.2425,2.47155 -4.392,5.0001 -6.75,7.3881c-0.618,0.6258 -1.383,2.02245 -2.046,2.7951c-2.0475,2.3835 -9.8055,9.1806 -10.821,11.75235c1.1985,2.9979 14.742,17.11965 17.6925,20.49015l31.8915,36.0765c1.1145,1.2735 9.3165,9.9435 8.9445,10.9155c-1.86,0.4305 -13.8045,0.168 -16.2735,-0.057c-1.71,-1.092 -6.1095,-6.501 -7.653,-8.2875c-2.154,-2.487 -4.3365,-4.9485 -6.549,-7.383l-23.8155,-26.9445c-1.416,-1.5975 -2.901,-3.018 -4.32,-4.563c-3.372,-3.699 -6.6345,-7.4985 -9.7815,-11.3895c-2.571,2.8425 -5.0325,5.742 -7.791,8.403c-2.1225,2.0475 -4.0395,4.356 -6.2085,6.3615c0.237,-4.614 -0.3885,-9.123 -0.1125,-13.731c0.0885,-1.485 -0.1365,-4.1085 0.879,-5.208c2.2455,-2.43165 4.623,-4.7556 6.8955,-7.16415l19.0125,-19.82715c3.504,-3.59565 6.7635,-7.3971 10.353,-10.9419c1.4355,-1.4187 2.6715,-3.0336 4.2255,-4.5105z" fill="url(#color-4)"/><path d="M110.85075,66.5226c1.5342,-1.0371 4.79385,-1.8372 6.64905,-2.53695c1.3332,-0.50295 3.53205,-1.4271 4.8801,-1.7391c6.078,-1.4064 12.14415,-2.89215 18.3873,-3.28335c3.20625,-0.201 6.2778,0.09675 9.4683,0.10245c4.0545,0.0246 8.577,0.2181 12.537,1.05555c13.6575,2.88795 26.811,8.00985 38.043,16.4178c1.2795,0.95745 5.1345,3.4089 4.926,5.02095c-1.674,2.51955 -4.7865,4.3431 -6.246,7.0962c-0.504,0.94815 -1.5315,1.2168 -2.4255,0.567c-7.485,-5.44395 -15.51,-10.40865 -24.462,-13.00245c-1.6485,-0.47775 -3.762,-1.31595 -5.4285,-1.91415c0.3165,2.9379 0.1425,5.35515 0.168,8.28c0.072,5.6625 0.0795,11.3259 0.021,16.9887l0.033,12.68265c0.0015,2.0037 0.015,4.00815 -0.036,6.0111c-0.0165,0.6612 -0.378,1.2387 -0.8205,1.70595c-1.044,1.2126 -3.0495,3.0861 -4.2285,4.27905c-2.436,2.46855 -4.9875,5.0757 -7.662,7.2744c-0.0495,-0.7521 -0.0495,-1.605 -0.012,-2.36235c0.1725,-3.4272 -0.204,-6.87615 -0.1605,-10.2891c-0.1065,-0.72465 -0.0165,-3.16935 -0.0525,-4.068c-0.1815,-4.5027 0.063,-9.04905 0.0825,-13.5195l-0.0855,-17.24115c-0.0225,-3.11625 -0.318,-9.15465 0.3825,-11.9328c-11.2131,-1.15155 -21.82695,0.2613 -32.5653,3.51795l0.0648,-0.23445c0.6033,-0.34035 1.0848,-0.405 1.75785,-0.55965c0.85875,-2.394 -0.26205,-0.9579 -0.79065,-2.86275c-0.35655,-1.28475 -0.7443,-2.7816 -2.09985,-3.3381c-0.62595,-1.06665 -1.27545,-2.5737 -1.917,-3.76455c0.0774,-0.69825 0.2781,-0.81195 0.83595,-1.31685l0.1101,-0.09855c-0.4485,-0.3753 -8.16195,3.24915 -9.35415,3.06405z" fill="url(#color-5)"/><path d="M154.482,118.87695c0.9825,-2.73525 -1.209,-6.46485 2.412,-7.4874c2.037,1.4868 3.6375,3.02535 5.571,4.56405c1.0095,0.80235 3.2055,1.971 4.41,2.6442c0.0885,0.6939 -0.294,0.5481 -0.33,1.37715c-1.044,1.2126 -3.0495,3.0861 -4.2285,4.27905c-2.436,2.46855 -4.9875,5.0757 -7.662,7.2744c-0.0495,-0.7521 -0.0495,-1.605 -0.012,-2.36235c0.1725,-3.4272 -0.204,-6.87615 -0.1605,-10.2891z" fill="#b46a46"/><path d="M154.7535,214.4055c-0.0045,-1.2195 -0.111,-2.556 -0.2025,-3.78c-0.2565,-3.813 0.12,-8.064 0.189,-11.8485c0.0585,-3.3015 -0.6915,-12.036 0.1665,-14.832c0.5655,-1.8435 10.8945,-11.706 12.4995,-13.0275c-0.006,4.5405 0.4815,9.006 0.1035,13.599c-0.1395,1.689 -0.0675,4.209 0.006,5.9145c0.3615,8.4375 0.5985,16.914 -0.066,25.3455c-0.174,2.208 0.081,4.671 -0.1635,6.8715c4.5135,-1.5105 9.195,-2.7975 13.29,-5.172c0.825,-0.477 2.4945,-0.648 3.3645,-1.1685c3.261,-1.6905 6.4305,-3.8625 9.3675,-5.9955c1.0455,-0.759 4.4895,-3.558 5.1705,-3.0165c1.4085,1.119 7.5135,7.2345 8.1135,8.439c-0.039,0.504 -0.285,0.987 -0.72,1.242c-2.0205,1.188 -3.828,2.973 -5.6895,4.2765c-6.135,4.296 -12.87,7.8135 -19.8525,10.506c-1.4595,0.561 -2.9535,1.4205 -4.4565,1.9005c-2.1165,0.675 -4.2735,0.8895 -6.423,1.5105c-1.7955,0.5175 -3.7695,1.194 -5.5665,1.6185c-1.56,0.3675 -3.5685,0.519 -5.19,0.7395c-1.2105,0.165 -2.5995,0.3435 -3.804,0.2775c0.021,-1.284 0.0195,-2.904 -0.231,-4.1565c-0.4155,-2.5575 0.228,-4.5675 0.0135,-6.3405c0.3225,-1.884 0.171,-10.6875 0.081,-12.903z" fill="url(#color-6)"/><path d="M227.9085,110.2644c1.731,0.9279 3.051,6.69615 4.071,8.4849c1.7745,3.1098 2.2455,6.91275 2.9955,10.37025c0.3135,1.5753 0.8655,3.10065 1.1775,4.67445c2.319,11.6901 1.851,24.033 -1.41,35.5005c-0.363,1.2735 -0.3765,2.775 -0.7575,3.9915c-0.6105,1.947 -1.4805,3.8445 -2.1405,5.7765c-0.783,1.941 -1.425,4.191 -2.625,5.9145c-0.996,1.431 -2.6055,-0.552 -3.4185,-1.278c-1.0155,-1.0305 -6.048,-6.1515 -6.399,-7.1775c-0.1425,-0.4185 2.4615,-8.2455 2.7735,-9.4635c1.239,-4.833 1.9215,-8.553 2.289,-13.524c0.312,-4.24095 0.2355,-8.6808 -0.369,-12.9009c-0.264,-1.8333 -0.8745,-3.8718 -1.1625,-5.7612c-0.357,-2.33985 -0.852,-4.7766 -1.353,-7.0869c-0.12,-0.55095 -1.0125,-1.9401 -1.2105,-2.5704c-0.6285,-2.00115 -1.143,-4.09815 -1.5765,-6.14355c2.6445,-2.826 5.85,-5.34885 8.2695,-8.4117c0.1515,-0.1911 0.609,-0.32535 0.846,-0.39495z" fill="url(#color-7)"/><path d="M110.85075,66.5226c1.1922,0.1851 8.90565,-3.43935 9.35415,-3.06405l-0.1101,0.09855c-0.55785,0.5049 -0.75855,0.6186 -0.83595,1.31685c0.64155,1.19085 1.29105,2.6979 1.917,3.76455c1.35555,0.5565 1.7433,2.05335 2.09985,3.3381c0.5286,1.90485 1.6494,0.46875 0.79065,2.86275c-0.67305,0.15465 -1.15455,0.2193 -1.75785,0.55965l-0.0648,0.23445l-0.1533,0.0666c-1.7934,0.7665 -3.6942,1.2678 -5.4768,2.0616c-1.35645,0.6039 -2.6022,1.4379 -3.92385,2.11035c-13.8579,7.05135 -19.66185,12.70425 -29.4234,24.64155l-0.21495,-0.1566c-0.213,0.32505 -0.0819,0.1881 -0.3909,0.41325c-3.94695,-0.77625 -6.2046,-2.0643 -8.1441,-5.69055c-0.2082,-0.38955 -0.86415,-1.64505 -0.64245,-2.1075c0.7902,-1.64745 5.3847,-6.4863 5.6103,-7.9899c1.53675,-2.58465 4.17495,-4.4856 6.3159,-6.4704c2.75535,-2.55435 5.34885,-4.93425 8.5455,-6.94785c1.65105,-1.03995 2.5995,-2.3988 4.6407,-2.99355c1.7337,-0.5052 3.5457,-2.2383 5.22225,-3.00765c2.2893,-1.22835 4.29225,-1.983 6.64215,-3.0402z" fill="url(#color-8)"/><path d="M221.04,81.9426c4.626,-0.4011 12.3855,-0.10395 17.205,-0.0219c-1.3065,0.95325 -2.2125,2.4093 -3.3195,3.60135c-1.2,1.2927 -2.418,2.43615 -3.573,3.8007c-2.757,3.25845 -6.162,5.9358 -8.9295,9.2358c-0.5595,0.6672 -1.35,1.27095 -1.923,1.9443c-2.4,2.79015 -4.917,5.54895 -7.6905,7.9812c-1.6275,1.42755 -3.9675,4.75365 -5.514,5.88075c-0.27,0.0084 -0.357,0.084 -0.6045,0.1923c-0.717,-0.1026 -0.9105,-0.18045 -1.371,-0.73905c-1.4535,-1.6125 -1.3635,-1.70685 -1.1865,-3.6846c0.2025,-2.2374 -4.011,-2.24055 -5.3535,-2.2215c-0.0465,0.81075 0.126,1.7271 -0.1035,2.4978l-0.3045,0.0816c-1.0425,-0.2748 -1.6335,-0.8691 -2.433,-1.5657l0.069,-0.55635c5.31,-5.9451 10.5255,-11.8044 16.275,-17.34135c1.2645,-1.2177 2.337,-2.9589 3.5235,-4.2759c1.2735,-1.19835 3.9315,-3.7506 5.2335,-4.80945z" fill="#703c29"/></g></svg></svg>